HIERARCHY
ROOT Hips
{
  OFFSET 279.157 85.6768 304.565
  CHANNELS 6 Xposition Yposition Zposition Zrotation Xrotation Yrotation
  JOINT LeftUpLeg
  {
    OFFSET 8.64259 1.95398 -2.38835
    CHANNELS 3 Zrotation Xrotation Yrotation
    JOINT LeftLeg
    {
      OFFSET 43.7702 0 0
      CHANNELS 3 Zrotation Xrotation Yrotation
      JOINT LeftFoot
      {
        OFFSET 40.6238 0 0
        CHANNELS 3 Zrotation Xrotation Yrotation
        JOINT LeftToeBase
        {
          OFFSET 12.7242 0 0
          CHANNELS 3 Zrotation Xrotation Yrotation
          End Site
          {
            OFFSET 0 0 0
          }
        }
      }
    }
  }
  JOINT RightUpLeg
  {
    OFFSET -8.2249 1.95398 -2.59336
    CHANNELS 3 Zrotation Xrotation Yrotation
    JOINT RightLeg
    {
      OFFSET 43.5653 0 0
      CHANNELS 3 Zrotation Xrotation Yrotation
      JOINT RightFoot
      {
        OFFSET 40.6238 0 0
        CHANNELS 3 Zrotation Xrotation Yrotation
        JOINT RightToeBase
        {
          OFFSET 12.7242 0 0
          CHANNELS 3 Zrotation Xrotation Yrotation
          End Site
          {
            OFFSET 0 0 0
          }
        }
      }
    }
  }
  JOINT Spine
  {
    OFFSET 0.165834 0.87714 6.61349
    CHANNELS 3 Zrotation Xrotation Yrotation
    JOINT Spine1
    {
      OFFSET 7.38963 1.71661e-005 0
      CHANNELS 3 Zrotation Xrotation Yrotation
      JOINT Spine2
      {
        OFFSET 11.9445 1.14441e-005 0
        CHANNELS 3 Zrotation Xrotation Yrotation
        JOINT Spine3
        {
          OFFSET 14.7254 4.19617e-005 0
          CHANNELS 3 Zrotation Xrotation Yrotation
          JOINT Spine4
          {
            OFFSET 10.9679 0 0
            CHANNELS 3 Zrotation Xrotation Yrotation
            JOINT RightShoulder
            {
              OFFSET 2.46616 -1.6653 3.69651
              CHANNELS 3 Zrotation Xrotation Yrotation
              JOINT RightArm
              {
                OFFSET 13.0012 0 0
                CHANNELS 3 Zrotation Xrotation Yrotation
                JOINT RightForeArm
                {
                  OFFSET 28.7848 1.52588e-005 0
                  CHANNELS 3 Zrotation Xrotation Yrotation
                  JOINT RightHand
                  {
                    OFFSET 26.5688 1.52588e-005 0
                    CHANNELS 3 Zrotation Xrotation Yrotation
                    End Site
                    {
                      OFFSET 0 0 0
                    }
                  }
                }
              }
            }
            JOINT LeftShoulder
            {
              OFFSET 2.38034 -1.29275 -3.7523
              CHANNELS 3 Zrotation Xrotation Yrotation
              JOINT LeftArm
              {
                OFFSET 16.3182 6.10351e-005 0
                CHANNELS 3 Zrotation Xrotation Yrotation
                JOINT LeftForeArm
                {
                  OFFSET 27.0901 0 0
                  CHANNELS 3 Zrotation Xrotation Yrotation
                  JOINT LeftHand
                  {
                    OFFSET 24.5451 1.52588e-005 0
                    CHANNELS 3 Zrotation Xrotation Yrotation
                    End Site
                    {
                      OFFSET 0 0 0
                    }
                  }
                }
              }
            }
            JOINT Neck
            {
              OFFSET 5.0226 -0.0266342 0
              CHANNELS 3 Zrotation Xrotation Yrotation
              JOINT Head
              {
                OFFSET 6.69364 2.86102e-005 0
                CHANNELS 3 Zrotation Xrotation Yrotation
                End Site
                {
                  OFFSET 0 0 0
                }
              }
            }
          }
        }
      }
    }
  }
}
MOTION
Frames:	14
Frame Time:	0.0416667
18.3147 95.6962 39.676 83.8222 -47.6746 89.1233 -167.129 -1.27913 88.7485 -76.6903 0.894602 0.388357 52.2608 -5.35474 3.22671 19.2564 -2.73666 -7.38966 179.547 33.2778 96.9573 -30.0047 -15.4642 -0.168611 63.9853 -2.06384 0.236964 22.5071 1.52339 3.40034 -0.72527 7.76498 -91.178 11.3209 -1.99217 -2.14708 -0.350151 -2.08473 -2.05735 -22.8769 -1.25505 -2.6463 -2.86422 -1.25504 -2.6463 88.2366 -26.5114 -111.823 7.57975 -6.72755 -22.4178 9.77033 8.03307 -65.3339 -23.3289 2.78743 -15.1481 -93.7588 -51.1297 73.4459 -5.38963 -8.00232 -36.6688 78.5449 40.505 -81.9649 -7.26945 4.48088 -90.4226 16.668 9.75576 4.52872 -10.3455 8.12501 1.15146 
23.4607 94.3323 44.6403 84.894 -46.6587 89.2644 -164.534 5.65172 88.501 -87.7126 -6.3707 1.66878 55.5037 -2.2757 5.30302 16.6145 -4.03025 -7.25225 178.066 34.7899 96.6938 -41.8983 -17.7665 -0.105463 67.1826 -4.07396 -2.48578 12.0867 3.75048 7.22253 -0.46218 7.84612 -91.0729 11.1649 -1.41842 -1.99725 -0.506744 -1.50494 -1.93291 -23.0317 -0.752783 -2.33103 -3.01908 -0.752773 -2.33103 88.2773 -25.0222 -112.473 6.44348 -4.31778 -23.3373 11.2257 7.85744 -64.6671 -25.3704 2.83453 -14.379 -94.5534 -52.1518 72.5705 -3.8552 -6.46148 -39.9661 56.5339 36.6413 -65.7257 -13.7049 10.1534 -88.7938 16.8849 8.69076 5.83702 -9.1287 6.79177 -0.20447 
28.0774 92.8398 49.2409 84.6068 -45.9366 90.6828 -163.543 16.3375 90.0227 -98.5128 -7.05768 3.48005 56.9483 -0.201756 6.72634 14.0089 -5.07947 -7.76064 177.171 34.3517 98.6736 -49.7886 -15.039 0.231535 73.1719 -8.42622 -2.43164 21.7623 1.5667 4.44449 -0.0500484 7.95245 -91.2168 10.956 -0.662911 -2.3579 -0.716906 -0.766003 -2.32647 -23.2349 0.0761501 -2.44808 -3.22223 0.0761591 -2.44808 88.4011 -24.0624 -112.695 4.91166 -0.98953 -25.0779 12.1498 8.72118 -63.7651 -25.0066 2.64446 -13.5028 -95.012 -52.905 72.1209 -3.07282 -5.13885 -43.2565 32.5771 23.0408 -51.5247 -24.1448 16.5727 -79.5713 19.5803 7.59121 6.58044 -8.93992 5.36506 -0.654854 
32.5167 92.0617 54.0807 84.5204 -44.2448 92.6606 -165.903 27.3405 90.8778 -106.697 1.02958 4.696 57.2086 1.24037 10.0964 11.3569 -6.14828 -8.28778 174.968 30.7606 100.546 -52.7556 -13.8455 1.56315 78.7394 -12.4082 -3.36901 21.4282 1.05147 7.53357 0.258936 8.05726 -91.3725 10.75 -0.117291 -2.71843 -0.923794 -0.236756 -2.71065 -23.4372 0.704856 -2.62815 -3.42451 0.704857 -2.62814 88.1973 -24.1586 -113.077 2.89655 0.980138 -26.5095 18.4783 14.706 -63.6886 -26.8521 2.5071 -11.3325 -95.1935 -52.0898 71.6309 -3.2133 -3.92594 -45.7778 10.3977 2.2957 -42.9665 -28.2948 13.0534 -54.9104 22.7295 6.16973 5.76801 -9.94403 4.03031 -0.304378 
37.7241 91.4372 59.4988 85.0292 -41.6167 92.4074 -169.572 35.0828 89.6499 -110.403 7.8911 5.05141 60.7043 3.22878 11.9962 11.3707 -5.69219 -9.39176 173.677 25.3143 99.4131 -54.3132 -12.7824 2.20117 83.8426 -15.2616 -2.29559 24.6259 0.583448 5.04094 0.330737 8.16624 -91.3396 10.5342 0.0437369 -2.66607 -1.13949 -0.0736034 -2.66542 -23.6543 0.842713 -2.52986 -3.64168 0.842713 -2.52985 88.5218 -21.6756 -113.705 3.68574 4.86776 -26.4192 15.9093 10.5251 -60.5086 -25.8445 2.81223 -13.3144 -94.0309 -52.6033 73.446 -2.83865 -1.79685 -48.6282 -3.21502 -11.9003 -42.7839 -24.3883 6.65542 -38.0789 25.2014 5.44689 7.30265 -11.4593 2.78694 -2.05667 
43.1443 91.257 65.2903 85.705 -38.6779 91.2749 -172.656 40.9355 87.6633 -109.461 9.16188 5.10456 65.0556 5.69009 11.2388 15.9579 -3.32996 -10.06 173.081 17.9784 97.9826 -52.8754 -9.64634 2.40705 88.396 -18.7046 -2.74384 25.3768 0.0464798 7.03358 0.442945 8.19381 -91.1045 10.4855 0.375434 -2.22871 -1.18729 0.277008 -2.24307 -23.7099 1.02776 -2.013 -3.69724 1.02778 -2.013 88.2564 -22.1032 -114.055 4.54796 7.8255 -25.008 15.2063 9.70352 -59.0382 -25.0802 2.95349 -14.2771 -93.4707 -51.186 73.8823 -4.85256 0.905669 -49.9611 -9.75833 -18.6018 -44.4643 -15.5108 2.33769 -25.6086 25.2558 3.13011 6.38053 -11.3083 0.899471 -2.3104 
48.7007 91.865 71.2344 84.741 -37.0974 87.865 -171.751 46.041 83.4701 -103.728 6.73371 4.57383 68.6631 7.67081 9.47488 21.9695 -1.87226 -6.05056 172.322 12.0377 95.1825 -49.5162 -11.5106 2.37642 86.4282 -18.3826 -5.03847 30.1001 -1.13824 5.77399 0.609449 8.01985 -90.6696 10.8391 0.904145 -1.41872 -0.832379 0.840847 -1.45714 -23.3661 1.28869 -1.08145 -3.35347 1.28871 -1.08145 87.1765 -24.0035 -115.334 5.41778 9.86427 -23.0498 15.5016 10.7645 -57.6916 -24.0428 2.90362 -14.2678 -92.9754 -51.3904 74.6585 -3.13117 4.24529 -50.8255 -14.0722 -22.4055 -45.6461 -12.2708 1.31227 -20.98 23.8581 0.764224 4.6836 -10.6592 -0.712294 -2.34137 
54.7232 93.1688 77.5856 84.8823 -36.3941 85.6728 -170.154 47.855 80.398 -94.8341 4.35117 3.51696 72.5346 9.56453 7.78474 23.5632 -1.56884 -4.36986 172.478 3.4976 95.1387 -43.1693 -12.8171 1.81916 79.4436 -14.9788 -8.27507 36.4642 -3.01152 7.62443 0.851695 7.93025 -90.2628 11.0185 1.57375 -0.673152 -0.651662 1.54261 -0.741785 -23.1943 1.70328 -0.168934 -3.18166 1.70329 -0.168936 86.5388 -25.8001 -115.678 8.19811 11.3729 -21.7374 15.6348 12.6004 -57.1918 -23.467 2.94039 -14.3652 -91.8494 -51.1122 76.2402 -0.907245 7.93939 -51.0773 -17.0746 -24.4457 -46.7223 -6.70681 0.440659 -16.9221 22.7546 -1.55791 1.93121 -10.8772 -2.07171 -1.09209 
61.0255 94.6041 84.1761 86.5582 -36.2227 85.0027 -169.732 47.1183 79.2894 -84.2679 3.8588 1.91124 74.858 10.1612 6.38026 25.7259 -0.497257 -4.41894 173.697 -4.6147 92.9955 -35.4923 -10.7068 0.54359 70.7253 -8.61601 -7.21058 40.7684 -4.21376 11.7142 1.14411 7.95991 -89.9143 10.9564 2.31748 -0.0495591 -0.712486 2.31302 -0.151569 -23.2633 2.22515 0.649574 -3.25067 2.22516 0.649572 85.2748 -27.8443 -117.115 10.6222 14.3357 -18.9029 12.3843 7.87506 -55.6704 -22.1425 3.09836 -16.6834 -90.6954 -50.35 77.7685 0.683301 11.526 -49.8079 -18.584 -24.1648 -48.2078 -4.39324 0.122248 -16.3894 21.4402 -3.69669 0.129774 -11.4254 -3.46993 -1.76183 
67.6697 96.1443 91.0054 86.6483 -36.4717 83.2064 -169.662 45.6126 78.5771 -71.3663 4.32255 -0.435841 76.7617 10.9544 4.85503 24.3061 -1.29781 -4.01523 174.91 -11.5354 91.8972 -28.2685 -11.9434 -1.35698 59.9588 -0.697123 -4.25213 37.8713 -3.47892 10.7523 1.57653 7.82877 -89.502 11.2082 3.36925 0.660382 -0.458518 3.39506 0.511282 -23.0218 3.01488 1.64327 -3.00913 3.01493 1.64327 84.5132 -30.037 -117.42 13.5118 15.5934 -15.3736 14.5405 10.1274 -55.8462 -23.1291 3.4667 -17.1525 -90.2109 -48.7066 78.1275 3.99551 15.7906 -50.0426 -20.5707 -25.3873 -47.7454 -4.67229 0.186005 -17.9539 20.7897 -6.70923 -3.33263 -13.5105 -5.31041 -1.12381 
74.6472 97.228 97.8841 85.3978 -35.6495 80.3738 -171.049 43.9473 77.5689 -56.9058 4.38299 -2.7336 76.9082 10.6746 2.70438 26.4991 -0.526171 -2.76687 175.106 -15.7155 91.0447 -25.1537 -13.2241 -2.68007 54.7461 3.41643 -1.29568 19.2098 1.96851 6.30689 1.83326 7.64324 -89.14 11.572 4.04963 1.29462 -0.0930941 4.10264 1.11487 -22.6629 3.47322 2.4529 -2.65027 3.47323 2.45289 84.1467 -29.4951 -118.413 16.2902 18.689 -11.4288 12.4989 7.70874 -55.5295 -22.448 3.649 -18.9837 -89.6689 -47.4165 78.662 6.55094 18.9114 -49.6475 -21.5274 -25.0437 -48.7746 -5.05426 0.269522 -19.8489 21.3417 -8.68023 -3.70764 -16.3153 -6.85644 -2.81142 
81.4044 97.6768 104.504 84.0348 -34.4576 78.609 -172.76 42.4144 77.664 -42.77 6.6845 -4.4375 74.5645 9.00271 0.781007 27.1669 -0.575742 -1.16858 175.07 -17.7684 91.4716 -27.4212 -15.7949 -2.80829 56.1346 3.04121 -1.51788 16.8297 2.57577 6.5462 2.03952 7.57495 -88.9059 11.6929 4.56986 1.70258 0.0291586 4.64036 1.49944 -22.5459 3.84686 2.99856 -2.53327 3.84686 2.99856 84.7847 -29.9272 -116.957 18.3317 19.1684 -10.6735 16.8236 13.7477 -55.3764 -23.1015 4.3902 -20.184 -89.4848 -45.4045 78.5062 9.75631 20.1148 -50.954 -23.2037 -25.1456 -49.9435 -5.09734 0.336902 -22.0881 22.5286 -10.4585 -4.31359 -17.1181 -8.21953 -3.5473 
88.1319 97.3319 110.487 82.4829 -32.4018 78.3687 -174.954 41.6431 78.1162 -30.9498 9.75036 -4.73048 72.4812 7.67018 -0.36966 28.439 -0.280005 0.426059 176.428 -18.2339 94.5193 -32.353 -16.4457 -1.9008 58.3245 1.64378 -1.01494 20.441 1.81205 5.15335 2.07158 7.35428 -88.9765 12.1395 4.60191 1.53354 0.47603 4.66495 1.32912 -22.1026 3.92815 2.84719 -2.09 3.92817 2.84719 85.3851 -29.1109 -116.226 19.8771 15.4851 -8.77312 26.5814 26.4165 -62.3357 -24.7924 3.8458 -15.3101 -90.1682 -47.4555 77.9091 13.2602 21.473 -50.0606 -25.301 -24.7994 -53.6354 -5.42759 0.343955 -20.5547 21.3409 -10.8022 -1.73349 -15.8923 -9.15157 -6.2832 
94.2393 96.8301 116.261 82.3822 -30.9048 81.853 -176.252 40.8065 80.8355 -25.161 14.483 -4.3982 72.8014 8.11071 0.086603 27.1364 -1.17527 1.15473 178.257 -17.9318 99.8991 -38.8708 -17.0211 0.678271 57.0483 2.07891 -0.500039 21.3021 1.25514 6.68368 2.11366 7.24063 -89.3321 12.3844 4.51733 0.819469 0.721188 4.54901 0.619465 -21.8653 4.06193 2.14125 -1.85265 4.06193 2.14125 85.7525 -30.1834 -114.971 20.2781 13.0293 -7.9742 27.6889 28.0085 -64.6924 -26.0908 3.18916 -12.5389 -90.0191 -47.8555 78.2274 12.7962 22.29 -50.2934 -24.8098 -24.0002 -54.4484 -5.31368 0.340956 -21.0836 21.4515 -12.2441 -4.11207 -15.2528 -10.1078 -3.72356 
